<svg xmlns="http://www.w3.org/2000/svg" xmlns:xlink="http://www.w3.org/1999/xlink" viewBox="0 0 1024 1024"><defs><style>.cls-1{fill:#22b573;}.cls-2{fill:url(#linear-gradient);}.cls-3{fill:url(#linear-gradient-2);}.cls-4{fill:url(#linear-gradient-3);}.cls-5{fill:#006837;}.cls-6{fill:url(#radial-gradient);}</style><linearGradient id="linear-gradient" x1="512" y1="52" x2="512" y2="972" gradientUnits="userSpaceOnUse"><stop offset="0" stop-color="#22b573" stop-opacity="0"/><stop offset="0.43" stop-color="#21b472" stop-opacity="0.02"/><stop offset="0.59" stop-color="#1fae6e" stop-opacity="0.08"/><stop offset="0.71" stop-color="#1ba667" stop-opacity="0.2"/><stop offset="0.81" stop-color="#16995d" stop-opacity="0.36"/><stop offset="0.89" stop-color="#0e8850" stop-opacity="0.58"/><stop offset="0.96" stop-color="#057441" stop-opacity="0.84"/><stop offset="1" stop-color="#006837"/></linearGradient><linearGradient id="linear-gradient-2" x1="512" y1="52" x2="512" y2="972" gradientUnits="userSpaceOnUse"><stop offset="0" stop-color="#39b54a"/><stop offset="0.07" stop-color="#36b54f" stop-opacity="0.88"/><stop offset="0.23" stop-color="#30b55a" stop-opacity="0.62"/><stop offset="0.4" stop-color="#2bb563" stop-opacity="0.39"/><stop offset="0.56" stop-color="#27b56a" stop-opacity="0.22"/><stop offset="0.72" stop-color="#24b56f" stop-opacity="0.1"/><stop offset="0.87" stop-color="#23b572" stop-opacity="0.03"/><stop offset="1" stop-color="#22b573" stop-opacity="0"/></linearGradient><linearGradient id="linear-gradient-3" x1="512" y1="972" x2="512" y2="52" gradientTransform="translate(0 1024) rotate(-90)" gradientUnits="userSpaceOnUse"><stop offset="0" stop-color="#8cc63f"/><stop offset="0.11" stop-color="#78c349" stop-opacity="0.81"/><stop offset="0.27" stop-color="#5ebf56" stop-opacity="0.56"/><stop offset="0.43" stop-color="#48bb60" stop-opacity="0.36"/><stop offset="0.58" stop-color="#38b868" stop-opacity="0.2"/><stop offset="0.73" stop-color="#2cb76e" stop-opacity="0.09"/><stop offset="0.87" stop-color="#24b572" stop-opacity="0.02"/><stop offset="1" stop-color="#22b573" stop-opacity="0"/></linearGradient><radialGradient id="radial-gradient" cx="701" cy="322" r="162.4" gradientUnits="userSpaceOnUse"><stop offset="0" stop-color="#f2f2f2" stop-opacity="0.5"/><stop offset="0.76" stop-color="#55c492" stop-opacity="0.12"/><stop offset="1" stop-color="#22b573" stop-opacity="0"/></radialGradient></defs><g id="Background"><circle class="cls-1" cx="512" cy="512" r="512"/><circle class="cls-2" cx="512" cy="512" r="460"/><circle class="cls-3" cx="512" cy="512" r="460"/><circle class="cls-4" cx="512" cy="512" r="460"/></g><g id="Icon1"><path class="cls-5" d="M769.22,201.7S600.94,203.77,448.07,437a67.93,67.93,0,0,0-.13,74.53,160.47,160.47,0,0,0,25.56,30.37c38.63,35.27,98.68,31.78,133.53-7.23C663.33,471.66,771.73,333,769.22,201.7Z" transform="translate(0 0)"/><path class="cls-5" d="M430.18,473c1.48,27.32,16.61,100.88,136.34,104.42a2.09,2.09,0,0,1,.6,4.13c-51.53,12-207.36,37.84-141.27-109.32A2.3,2.3,0,0,1,430.18,473Z" transform="translate(0 0)"/><path class="cls-5" d="M375.84,565.86c-1.49,10.4-10.52,79.22,123.53,66.26,3.35-.32,4.5,3.35,1.28,4.09-59,13.47-158.72,23.7-131.17-70.55C370.43,562.4,376.32,562.5,375.84,565.86Z" transform="translate(0 0)"/><path class="cls-5" d="M402.51,530.73c-2.87,27.32-4.87,90,139.72,59.09,2.72-.59,4.65,2.28,2.35,3.48l-41.05,29.5a2.79,2.79,0,0,1-.83.27c-6.95,1.12-91.73,13.72-116.12-34.33-8.11-16-6.62-33.46,3.31-47.87l7.86-11.41C399,527.65,402.73,528.64,402.51,530.73Z" transform="translate(0 0)"/><path class="cls-5" d="M347.22,595.69C311.33,615.17,181.79,698.08,311,821.41a5.73,5.73,0,0,0,9.38-2.28c6.06-17.34,25.68-54.42,82.34-53.38,18.81.35,37.55-3.07,54.61-11,31-14.41,66.3-44.51,47.31-104.67a5.7,5.7,0,0,0-6.66-3.84c-25.41,5.58-139.44,26.56-142.33-45.75A5.71,5.71,0,0,0,347.22,595.69Z" transform="translate(0 0)"/></g><g id="Layer_4" data-name="Layer 4"><ellipse class="cls-6" cx="701" cy="322" rx="166.68" ry="158"/></g></svg>